<svg width="30" height="33" fill="none" xmlns="http://www.w3.org/2000/svg"><rect x="3.5" y=".5" width="23" height="23" rx="11.5" fill="#fff" stroke="#2E3A59"/><rect x="11.5" y="28.5" width="7" height="4" rx="1.5" fill="#FFD058" stroke="#2E3A59"/><path d="M9.5 22.5h11V29a1.5 1.5 0 01-1.5 1.5h-8A1.5 1.5 0 019.5 29v-6.5z" fill="#A6ABBD" stroke="#2E3A59"/><path fill="#2E3A59" d="M10 24h1v1h-1zM19 24h1v1h-1zM10 26h1v1h-1zM19 26h1v1h-1zM10 28h1v1h-1zM19 28h1v1h-1zM.99 29.803L28.79 2.005l.707.707L1.697 30.51z"/></svg>