<svg width="40" height="26" fill="none" xmlns="http://www.w3.org/2000/svg"><path d="M20.52 9.458C20.52 4.234 24.868 0 30.233 0c5.365 0 9.26 4.088 9.714 9.293C40.64 17.235 34.444 23.884 26.92 26c2.565-1.51 4.354-4.135 4.652-7.189-.44.061-.883.104-1.339.104-5.365 0-9.713-4.234-9.713-9.457zM0 9.458C0 4.234 4.348 0 9.714 0c5.365 0 9.26 4.088 9.714 9.293.694 7.942-5.503 14.591-13.027 16.707 2.565-1.51 4.353-4.135 4.652-7.189-.44.061-.884.104-1.339.104C4.348 18.915 0 14.681 0 9.458z" fill="#00C368"/></svg>