<svg width="40" height="26" fill="none" xmlns="http://www.w3.org/2000/svg"><path d="M19.48 16.543c0 5.223-4.348 9.457-9.713 9.457-5.365 0-9.26-4.088-9.714-9.293C-.64 8.765 5.556 2.116 13.08 0c-2.564 1.51-4.353 4.135-4.651 7.189.44-.061.883-.104 1.339-.104 5.365 0 9.713 4.234 9.713 9.457zM40 16.543C40 21.765 35.652 26 30.286 26c-5.365 0-9.26-4.088-9.714-9.293C19.878 8.765 26.075 2.116 33.599 0c-2.565 1.51-4.353 4.135-4.652 7.189a9.75 9.75 0 011.339-.104c5.366 0 9.714 4.234 9.714 9.457z" fill="#E7EBF0"/></svg>