<svg width="24" height="28" fill="none" xmlns="http://www.w3.org/2000/svg"><path fill="#2E3A59" d="M9 9h1v10H9z"/><path fill="#2E3A59" d="M9 9h1v10H9z"/><path fill="#2E3A59" d="M9 9h1v10H9z"/><path fill="#2E3A59" d="M14.567 3.358l.866.5-6.684 11.577-.866-.5z"/><path fill="#2E3A59" d="M14.567 3.358l.866.5-6.684 11.577-.866-.5z"/><path fill="#2E3A59" d="M14.567 3.358l.866.5-6.684 11.577-.866-.5z"/><path fill="#2E3A59" d="M19.142 7.567l.5.866L9.183 14.47l-.5-.866z"/><path fill="#2E3A59" d="M19.142 7.567l.5.866L9.183 14.47l-.5-.866z"/><path fill="#2E3A59" d="M19.142 7.567l.5.866L9.183 14.47l-.5-.866z"/><path fill="#2E3A59" d="M19.643 19.567l-.5.866-11.374-6.567.5-.866z"/><path fill="#2E3A59" d="M19.643 19.567l-.5.866-11.374-6.567.5-.866z"/><path fill="#2E3A59" d="M19.643 19.567l-.5.866-11.374-6.567.5-.866z"/><path fill="#2E3A59" d="M15.433 24.143l-.866.5-7.794-13.5.866-.5z"/><path fill="#2E3A59" d="M15.433 24.143l-.866.5-7.794-13.5.866-.5z"/><path fill="#2E3A59" d="M15.433 24.143l-.866.5-7.794-13.5.866-.5z"/><rect y="7" width="14" height="14" rx="7" fill="#E7EBF0"/><path fill="#2E3A59" d="M6 2h1v24H6z"/><path d="M21 14h-7" stroke="#2E3A59"/><path d="M6.5 8.522a5.5 5.5 0 010 10.956V8.522z" fill="#fff" stroke="#2E3A59"/><rect x="14.5" y=".5" width="3" height="3" rx="1.5" fill="#FFD058" stroke="#2E3A59"/><rect x="19.5" y="5.5" width="3" height="3" rx="1.5" fill="#FFD058" stroke="#2E3A59"/><rect x="20.5" y="12.5" width="3" height="3" rx="1.5" fill="#FFD058" stroke="#2E3A59"/><rect x="19.5" y="19.5" width="3" height="3" rx="1.5" fill="#FFD058" stroke="#2E3A59"/><rect x="14.5" y="24.5" width="3" height="3" rx="1.5" fill="#FFD058" stroke="#2E3A59"/></svg>